<svg width="179" height="190" viewBox="0 0 179 165" fill="none" xmlns="http://www.w3.org/2000/svg">
<path d="M112.52 134.962C131.414 154.214 182.183 126.039 167.6 85.7164C153.017 45.3943 138.634 73.2042 105.261 35.4098C87.2265 14.9869 67.5013 2.25245 30.865 54.0551C7.38612 87.2535 18.7349 149.645 42.9496 147.837C67.1642 146.029 72.3728 94.0561 112.52 134.962Z" fill="#F1F2F2"/>
<path d="M44.8827 74.3934H43.3158L45.2574 72.6524L44.8827 74.3934Z" fill="#50336E"/>
<path d="M32.5565 115.127H74.7956V74.1048L59.157 52.8243L44.2854 73.0778V83.9758L32.5565 95.7048V115.127Z" fill="#D9A78B"/>
<path d="M74.7956 109.536H32.5565V110.191H74.7956V109.536Z" fill="#B68B73"/>
<path d="M88.3846 74.1048H74.7956V115.127H88.3846V74.1048Z" fill="#B68B73"/>
<path d="M58.8728 52.4385H72.8828L89.3456 74.1046H74.7957L58.8728 52.4385Z" fill="#3864A7"/>
<path d="M77.7202 74.1052L61.2463 52.4391H60.0122L76.486 74.1052H77.7202Z" fill="#073D8E"/>
<path d="M80.1532 74.1045L63.6816 52.4384H62.4452L78.9191 74.1045H80.1532Z" fill="#073D8E"/>
<path d="M82.5861 74.1045L66.1145 52.4384H64.8803L81.352 74.1045H82.5861Z" fill="#073D8E"/>
<path d="M85.0193 74.1045L68.5477 52.4384H67.3135L83.7851 74.1045H85.0193Z" fill="#073D8E"/>
<path d="M87.4545 74.1045L70.9807 52.4384H69.7466L86.2182 74.1045H87.4545Z" fill="#073D8E"/>
<path d="M89.3454 74.1045L72.8826 52.4384H72.1796L88.6512 74.1045H89.3454Z" fill="#073D8E"/>
<path d="M70.2776 48H67.9217V54.0584H70.2776V48Z" fill="#3864A7"/>
<path d="M67.9218 54.0584L66.8199 52.4386H65.7113V48H67.9218V54.0584Z" fill="#073D8D"/>
<path d="M43.9835 74.3933H42.7648L58.8728 52.4385L59.4612 53.2385L43.9835 74.3933Z" fill="#3864A7"/>
<path d="M44.2854 83.2839L30 97.3026L32.0893 97.3004L32.5565 96.8222V115.127H44.2854V85.0205V83.2839Z" fill="#B68B73"/>
<path d="M53.6762 80.0068H49.6894V91.0635H53.6762V80.0068Z" fill="white"/>
<path d="M61.2419 80.0068H57.2574V91.0635H61.2419V80.0068Z" fill="white"/>
<path d="M68.81 80.0068H64.8232V91.0635H68.81V80.0068Z" fill="white"/>
<path d="M53.6762 95.9803H49.6894V107.037H53.6762V95.9803Z" fill="white"/>
<path d="M61.2419 95.9803H57.2574V107.037H61.2419V95.9803Z" fill="white"/>
<path d="M68.81 95.9803H64.8232V107.037H68.81V95.9803Z" fill="white"/>
<path d="M62.3293 68.7792C62.7013 67.1937 61.7174 65.6068 60.1319 65.2348C58.5463 64.8629 56.9594 65.8467 56.5875 67.4322C56.2155 69.0178 57.1993 70.6047 58.7849 70.9767C60.3704 71.3486 61.9573 70.3648 62.3293 68.7792Z" fill="white"/>
<path d="M84.1759 49.1322L81 52.308H86.3484L84.1759 49.1322Z" fill="#50336E"/>
<path d="M84.176 49.132V114.064H111.648C111.648 114.064 111.648 61.4385 111.648 60.3011L92.4931 40.8977L84.176 49.132Z" fill="#D9A78B"/>
<path d="M134.447 60.3013H111.648V114.064H134.447V60.3013Z" fill="#B68B73"/>
<path d="M92.4931 40.8977H114.264L134.447 60.3011H111.648L92.4931 40.8977Z" fill="#FE5F5F"/>
<path d="M115.525 42.1105H93.6889L94.2247 42.6536H116.09L115.525 42.1105Z" fill="#E41717"/>
<path d="M119.098 45.5446H97.0815L97.6172 46.0877H119.663L119.098 45.5446Z" fill="#E41717"/>
<path d="M122.671 48.9811H100.472L101.008 49.5242H123.236L122.671 48.9811Z" fill="#E41717"/>
<path d="M126.244 52.4151H103.862L104.398 52.9582H126.809L126.244 52.4151Z" fill="#E41717"/>
<path d="M129.819 55.849H107.254L107.79 56.3921H130.384L129.819 55.849Z" fill="#E41717"/>
<path d="M133.392 59.2856H110.645L111.181 59.8287H133.957L133.392 59.2856Z" fill="#E41717"/>
<path d="M104.052 36H101.448V42.0863H104.052V36Z" fill="#FE5F5F"/>
<path d="M101.448 42.0863L100.231 40.9026H99.0056V36H101.448V42.0863Z" fill="#E41717"/>
<path d="M111.648 111.288H81.414V115.998H111.648V111.288Z" fill="#B68B73"/>
<path d="M111.648 116H136.268V111.29H111.648V116Z" fill="#B68B73"/>
<path d="M94.6971 55.5058H90.6591V50.1331C90.6591 49.0176 91.5627 48.1141 92.6781 48.1141C93.7936 48.1141 94.6971 49.0176 94.6971 50.1331V55.5058Z" fill="white"/>
<path d="M90.6591 73.6331H87.0108V63.7865C87.0108 62.7782 87.8267 61.9623 88.8349 61.9623C89.8432 61.9623 90.6591 62.7782 90.6591 63.7865V73.6331Z" fill="white"/>
<path d="M96.1415 73.6331H92.4931V63.7865C92.4931 62.7782 93.309 61.9623 94.3173 61.9623C95.3256 61.9623 96.1415 62.7782 96.1415 63.7865V73.6331Z" fill="white"/>
<path d="M101.56 73.6331H97.912V63.7865C97.912 62.7782 98.7279 61.9623 99.7362 61.9623C100.744 61.9623 101.56 62.7782 101.56 63.7865V73.6331Z" fill="white"/>
<path d="M107.082 73.6331H103.433V63.7865C103.433 62.7782 104.249 61.9623 105.257 61.9623C106.266 61.9623 107.082 62.7782 107.082 63.7865V73.6331Z" fill="white"/>
<path d="M90.6591 89.1495H87.0108V79.3028C87.0108 78.2945 87.8267 77.4786 88.8349 77.4786C89.8432 77.4786 90.6591 78.2945 90.6591 79.3028V89.1495Z" fill="white"/>
<path d="M96.1415 89.1495H92.4931V79.3028C92.4931 78.2945 93.309 77.4786 94.3173 77.4786C95.3256 77.4786 96.1415 78.2945 96.1415 79.3028V89.1495Z" fill="white"/>
<path d="M101.56 89.1495H97.912V79.3028C97.912 78.2945 98.7279 77.4786 99.7362 77.4786C100.744 77.4786 101.56 78.2945 101.56 79.3028V89.1495Z" fill="white"/>
<path d="M107.082 89.1495H103.433V79.3028C103.433 78.2945 104.249 77.4786 105.257 77.4786C106.266 77.4786 107.082 78.2945 107.082 79.3028V89.1495Z" fill="white"/>
<path d="M90.6591 103.904H87.0108V94.0594C87.0108 93.0511 87.8267 92.2352 88.8349 92.2352C89.8432 92.2352 90.6591 93.0511 90.6591 94.0594V103.904Z" fill="white"/>
<path d="M96.1415 103.904H92.4931V94.0594C92.4931 93.0511 93.309 92.2352 94.3173 92.2352C95.3256 92.2352 96.1415 93.0511 96.1415 94.0594V103.904Z" fill="white"/>
<path d="M101.56 103.904H97.912V94.0594C97.912 93.0511 98.7279 92.2352 99.7362 92.2352C100.744 92.2352 101.56 93.0511 101.56 94.0594V103.904Z" fill="white"/>
<path d="M107.082 103.904H103.433V94.0594C103.433 93.0511 104.249 92.2352 105.257 92.2352C106.266 92.2352 107.082 93.0511 107.082 94.0594V103.904Z" fill="white"/>
<path d="M81 52.3079L92.4931 40.8977L93.0215 41.4335L82.0936 52.3079H81Z" fill="#E41717"/>
<path d="M118.504 66.3462H115.767V73.6331H118.504V66.3462Z" fill="white"/>
<path d="M122.471 66.3462H119.734V73.6331H122.471V66.3462Z" fill="white"/>
<path d="M126.439 66.3462H123.701V73.6331H126.439V66.3462Z" fill="white"/>
<path d="M130.406 66.3462H127.669V73.6331H130.406V66.3462Z" fill="white"/>
<path d="M118.504 77.4811H115.767V84.768H118.504V77.4811Z" fill="white"/>
<path d="M122.471 77.4811H119.734V84.768H122.471V77.4811Z" fill="white"/>
<path d="M126.439 77.4811H123.701V84.768H126.439V77.4811Z" fill="white"/>
<path d="M130.406 77.4811H127.669V84.768H130.406V77.4811Z" fill="white"/>
<path d="M118.504 88.5918H115.767V95.8787H118.504V88.5918Z" fill="white"/>
<path d="M122.471 88.5918H119.734V95.8787H122.471V88.5918Z" fill="white"/>
<path d="M126.439 88.5918H123.701V95.8787H126.439V88.5918Z" fill="white"/>
<path d="M130.406 88.5918H127.669V95.8787H130.406V88.5918Z" fill="white"/>
<path d="M118.504 98.7306H115.767V106.018H118.504V98.7306Z" fill="white"/>
<path d="M122.471 98.7306H119.734V106.018H122.471V98.7306Z" fill="white"/>
<path d="M126.439 98.7306H123.701V106.018H126.439V98.7306Z" fill="white"/>
<path d="M130.406 98.7306H127.669V106.018H130.406V98.7306Z" fill="white"/>
</svg>
