<svg width="179" height="178" viewBox="0 0 179 178" fill="none" xmlns="http://www.w3.org/2000/svg">
<path d="M150.814 95.4578C178.482 89.5269 176.171 34.157 130.389 26.1681C84.6072 18.1792 104.283 43.6506 51.7775 52.2562C23.405 56.9065 1.58475 66.7323 33.4424 122.22C53.8588 157.78 119.237 179.302 129.292 158.632C139.348 137.963 92.0254 108.06 150.814 95.4578Z" fill="#F1F2F2"/>
<path d="M58.0437 46.1072C58.0437 46.1072 60.8194 45.8167 61.8188 48.4988C62.8181 51.1825 63.7615 52.0606 63.8785 53.4705C64.3553 59.1725 67.0157 57.8833 66.2675 61.17C65.5192 64.4567 65.0017 64.9544 65.0017 64.9544L58.6426 63.706L52.2003 63.7264C52.2003 63.7264 54.7199 62.466 54.16 59.7823C53.5984 57.0986 52.2003 52.701 52.9909 49.7047C53.7799 46.7119 56.3843 46.3365 58.0437 46.1072Z" fill="#454240"/>
<path d="M56.2874 134.213C56.2874 134.213 54.2938 136.955 54.5771 137.396C54.8605 137.838 57.0356 137.901 58.359 137.396C59.6825 136.892 59.7147 133.624 60.3136 132.221C60.5647 131.633 60.0269 129.899 59.2736 129.773C58.5185 129.647 57.6346 130.043 57.6346 130.043C57.6346 130.043 58.4065 132.039 56.2874 134.213Z" fill="#3865A7"/>
<path d="M57.6348 130.043C57.6348 130.043 57.477 131.338 57.2259 132.251C56.9731 133.167 55.6174 135.249 55.6819 135.502C55.7447 135.756 57.4464 135.983 58.1404 135.333C58.8343 134.682 59.3705 132.798 59.4332 131.657C59.496 130.515 59.2755 129.773 59.2755 129.773C59.2755 129.773 58.2965 129.349 57.6348 130.043Z" fill="#E7A585"/>
<path d="M60.314 132.221V135.139H59.9356V132.883L60.314 132.221Z" fill="#4F5587"/>
<path d="M61.5047 134.213C61.5047 134.213 59.5111 136.955 59.7945 137.396C60.0778 137.838 62.2529 137.901 63.5764 137.396C64.8998 136.892 64.932 133.624 65.5309 132.221C65.782 131.633 65.2442 129.899 64.4909 129.773C63.7358 129.647 62.8519 130.043 62.8519 130.043C62.8519 130.043 63.6239 132.039 61.5047 134.213Z" fill="#3865A7"/>
<path d="M62.8521 130.043C62.8521 130.043 62.6943 131.338 62.4432 132.251C62.1904 133.167 60.8347 135.249 60.8992 135.502C60.9619 135.756 62.6637 135.983 63.3577 135.333C64.0516 134.682 64.5878 132.798 64.6506 131.657C64.7133 130.515 64.4928 129.773 64.4928 129.773C64.4928 129.773 63.5138 129.349 62.8521 130.043Z" fill="#E7A585"/>
<path d="M65.5312 132.221V135.139H65.1529V132.883L65.5312 132.221Z" fill="#4F5587"/>
<path d="M52.6229 84.6101C52.6229 84.6101 51.1145 92.928 50.7073 95.0104C50.3001 97.0911 49.1583 107.17 49.0361 108.884C48.914 110.598 52.7552 118.841 52.9945 119.41C57.0139 128.929 57.4771 131.083 57.4771 131.083C57.4771 131.083 58.7971 131.91 59.4062 130.923C59.5912 130.622 56.9325 119.707 56.4947 116.679C56.0875 113.863 55.0271 109.514 55.3121 108.526C55.5972 107.537 58.2067 93.9182 58.6953 93.3458C59.184 92.7751 59.9186 93.6719 60.2037 94.9374C60.4887 96.2028 61.0995 107.138 61.466 108.526C61.8325 109.914 61.5474 114.607 61.751 116.973C61.9546 119.339 62.803 130.386 62.803 130.386C62.803 130.386 64.4454 130.68 64.6082 130.417C64.7711 130.154 66.1929 118.146 66.2337 115.332C66.2744 112.516 66.3185 108.633 66.3966 107.417C67.1516 95.7493 68.5785 94.2223 66.0844 85.8263C59.9865 65.2771 52.6229 84.6101 52.6229 84.6101Z" fill="#E7A585"/>
<path d="M52.6228 84.6103C52.6228 84.6103 51.1145 92.9281 50.7073 95.0105C50.3001 97.0913 49.1582 107.171 49.036 108.884C48.9139 110.598 52.6228 118.841 52.7043 119.453C52.7857 120.064 55.8397 128.825 55.8397 128.825C55.8397 128.825 58.926 128.773 59.7658 127.973C59.9355 127.811 56.9324 119.706 56.4946 116.677C56.0874 113.861 55.027 109.513 55.3121 108.524C55.5971 107.536 58.2066 93.9167 58.6952 93.3443C59.1839 92.7735 59.9185 93.6704 60.2036 94.9358C60.4886 96.2012 61.0994 107.137 61.4659 108.524C61.8324 109.912 61.5473 114.605 61.7509 116.971C61.9545 119.337 61.5253 127.747 61.5253 127.747C61.5253 127.747 65.5668 127.959 65.7297 127.696C65.8925 127.433 66.1946 118.147 66.2353 115.33C66.276 112.514 66.3201 108.631 66.3982 107.415C67.1532 95.7477 68.5801 94.2207 66.086 85.8247C59.9864 65.2773 52.6228 84.6103 52.6228 84.6103Z" fill="#FE5F5F"/>
<path d="M66.6933 87.4094C66.9291 87.3143 65.0407 81.067 64.6674 79.2003C64.3298 77.517 63.1794 75.9747 64.3026 73.1058C64.9457 71.4633 64.9033 69.5219 64.9033 69.5219C64.9033 69.5219 66.6203 73.3165 66.7849 74.2948C66.9478 75.2749 60.8482 73.4931 60.7634 73.6273C60.6022 73.8855 60.424 75.5382 60.424 76.1089C60.424 76.5811 69.2807 78.6754 70.3292 76.8189C70.6262 76.2923 68.7038 66.2165 67.4619 64.8746C65.4241 62.6716 60.0711 60.7947 60.0711 60.7947C60.0711 60.7947 58.6035 60.0066 56.0211 60.8219C53.4405 61.6372 49.8266 64.1409 49.2005 64.7931C48.5761 65.4453 46.0752 75.2851 45.8563 76.559C45.651 77.7582 45.7308 80.2788 48.4641 79.9561L55.8413 78.2644L55.3832 76.0138L49.8537 76.452C48.7254 76.6456 49.2667 75.6537 49.4109 75.1016C49.5517 74.5615 50.9396 69.5542 50.9396 69.5542C50.8598 70.9419 51.905 75.4957 52.4479 77.0737C52.9909 78.6516 51.7896 87.0952 51.7082 88.0192C51.7082 88.0209 56.1501 91.6728 66.6933 87.4094Z" fill="#3865A7"/>
<path d="M61.2725 61.2584C61.2725 61.2584 59.4536 65.0191 57.9334 66.1197C57.9334 66.1197 55.1966 62.0143 55.3375 61.0682C55.3358 61.0682 58.3677 59.7213 61.2725 61.2584Z" fill="#E7A585"/>
<path d="M61.3386 73.9348C61.3386 73.9348 60.4953 73.5934 60.2731 73.2877C60.0491 72.9819 59.3026 72.7985 58.7477 72.9632C58.1946 73.128 58.5 75.5077 58.5 75.5077L61.42 75.8865L61.3386 73.9348Z" fill="#E7A585"/>
<path d="M56.0535 75.7521C56.0535 75.7521 56.3334 74.215 56.2673 73.9313C56.1994 73.6476 56.7661 73.3623 56.8458 74.0638C56.9239 74.7653 56.9663 75.212 56.9663 75.212L56.0535 75.7521Z" fill="#E7A585"/>
<path d="M57.2681 76.8189L59.3941 76.7322C59.6655 76.7203 59.881 76.4995 59.8844 76.2261L59.9421 71.5669C59.9455 71.2748 59.7046 71.0386 59.4127 71.0488L56.8677 71.1321C56.5759 71.1423 56.3519 71.392 56.374 71.6841L56.7354 76.345C56.7574 76.6218 56.9933 76.8308 57.2681 76.8189Z" fill="#ECEBEB"/>
<path d="M56.0076 75.878C56.0076 75.878 55.9686 75.4415 56.8068 75.0406C57.9198 74.509 59.4044 73.9688 59.6572 74.1081C60.022 74.3085 59.8336 74.5871 59.1312 74.8181C58.4288 75.0508 58.1964 75.1238 58.1964 75.1238C58.1964 75.1238 59.5724 74.993 59.8812 75.1578C60.19 75.3226 60.2069 75.703 59.9813 75.7659C59.7556 75.8287 59.2245 75.8661 59.2245 75.8661C59.2245 75.8661 59.8082 75.8882 59.8659 76.1226C59.9083 76.2958 59.9304 76.5455 59.3772 76.6474C59.3772 76.6474 59.7522 77.0636 59.1906 77.3303C58.629 77.5969 57.6127 77.8398 57.102 77.9248C56.0399 78.0997 53.6425 77.9689 53.6425 77.9689L54.6265 76.2992C54.6265 76.2992 55.1746 76.3417 55.5512 76.2143C56.0585 76.0428 56.0076 75.878 56.0076 75.878Z" fill="#E7A585"/>
<path d="M55.385 76.0156L55.8431 78.2662L51.1416 79.3448L50.9601 76.3655L55.385 76.0156Z" fill="#474D7C"/>
<path d="M60.7618 73.6274C60.7618 73.6274 60.375 74.4597 60.4225 76.109C60.4225 76.109 63.3391 77.1757 65.6025 77.422V74.56L60.7618 73.6274Z" fill="#474D7C"/>
<path d="M55.8413 78.2662L52.5464 80.1006C52.5684 79.7184 52.5854 79.3516 52.5939 79.0118L55.8413 78.2662Z" fill="#20233A"/>
<path d="M64.5046 78.5107C61.8612 77.4593 60.8024 76.5115 60.5123 76.2092C60.4495 76.1446 60.4224 76.1089 60.4224 76.1089L64.1771 77.2045C64.2722 77.6614 64.3943 78.0878 64.5046 78.5107Z" fill="#20233A"/>
<path d="M58.4101 47.6767C58.4101 47.6767 62.0868 48.2083 61.5473 53.6403C61.0094 59.074 57.7653 58.6426 57.5482 58.6375C57.331 58.6324 54.2939 58.7513 54.0309 52.1218C54.0309 52.1218 53.9071 47.2198 58.4101 47.6767Z" fill="#E7A585"/>
<path d="M60.0422 57.6744C60.0422 57.6744 59.8149 60.5008 60.3578 61.3467C60.9024 62.1925 59.8929 63.3425 57.8145 62.9501C55.736 62.556 55.8565 61.3772 55.8565 61.3772C55.8565 61.3772 56.4385 59.6328 56.2688 58.2366C56.0991 56.8421 60.0422 57.6744 60.0422 57.6744Z" fill="#E7A585"/>
<path d="M57.9893 49.6472C57.9893 49.6472 59.7063 51.4544 60.5055 52.37C61.3029 53.2855 61.3945 55.0537 61.3945 55.0537C61.3945 55.0537 62.7383 53.4095 62.1767 51.4969C61.6151 49.5826 60.2849 45.8594 56.9187 47.0042C53.5525 48.149 53.4286 53.1836 53.8222 55.6787C53.8222 55.6771 55.3323 50.1669 57.9893 49.6472Z" fill="#454240"/>
<path d="M56.5403 58.3929C56.5403 58.3929 58.1064 59.1335 59.6317 58.0396C59.6317 58.0396 59.2075 58.9143 58.086 59.04C56.9628 59.1623 56.5403 58.3929 56.5403 58.3929Z" fill="#A4775F"/>
<path d="M56.0058 59.3781C56.0058 59.3781 50.948 63.8827 52.2613 66.6939C53.3811 69.0922 57.3547 67.6213 56.6981 65.1074C56.0432 62.5952 56.0058 59.3781 56.0058 59.3781Z" fill="#454240"/>
<path d="M57.3836 72.0324C57.3836 72.2074 57.2428 72.3483 57.068 72.3483C56.8932 72.3483 56.7524 72.2057 56.7524 72.0324C56.7524 71.8575 56.8949 71.7165 57.068 71.7165C57.2428 71.7148 57.3836 71.8575 57.3836 72.0324Z" fill="#48484D"/>
<path d="M79.8001 133.766C79.8001 133.766 78.7549 135.332 77.289 135.67C75.8231 136.009 74.3792 136.547 74.3673 137.473C74.3555 138.398 78.6056 138.952 80.2837 138.018C82.7879 136.625 83.0424 137.045 83.319 136.348C83.5973 135.652 82.9848 133.788 83.0034 133.568C83.0272 133.293 79.8001 133.766 79.8001 133.766Z" fill="#353A3D"/>
<path d="M79.9627 132.993C79.9627 132.993 79.7726 133.749 79.7998 133.766C79.8286 133.782 83.1032 134.172 83.0048 133.566C82.9251 133.073 82.8097 132.54 82.8097 132.54L79.9627 132.993Z" fill="#82807F"/>
<path d="M90.8217 133.663C90.8217 133.663 90.0769 135.161 88.8027 135.67C87.4419 136.216 86.3493 136.842 86.3747 137.744C86.4002 138.646 89.7036 139.562 92.1061 137.829C93.6246 136.735 94.1065 136.73 94.3491 136.041C94.5934 135.351 93.9266 133.561 93.9351 133.345C93.947 133.077 90.8217 133.663 90.8217 133.663Z" fill="#353A3D"/>
<path d="M90.7843 132.885C90.7843 132.885 90.7928 133.648 90.8216 133.663C90.8505 133.676 94.0148 133.938 93.935 133.345C93.8705 132.873 93.6279 132.304 93.6279 132.304L90.7843 132.885Z" fill="#82807F"/>
<path d="M79.179 87.1461C79.179 87.1461 76.2387 100.132 75.5668 104.088C74.995 107.454 74.5386 110.96 74.8135 113.391C75.1528 116.399 79.4081 131.995 79.2299 132.876C79.0518 133.758 83.682 133.017 83.682 133.017C83.682 133.017 80.4465 115.622 81.0929 112.385C81.5714 109.987 85.7656 94.0575 86.4086 94.8745C87.0516 95.6915 87.8491 109.908 88.3241 112.268C88.8009 114.627 90.2618 133.274 90.2618 133.274C90.2618 133.274 93.5296 133.756 94.4034 133.017C94.4034 133.017 94.8004 117.095 94.4967 112.672C94.3813 110.985 96.4699 92.4558 93.7909 84.9957C92.3758 81.0517 79.179 87.1461 79.179 87.1461Z" fill="#2D3132"/>
<path d="M66.3792 75.3412C68.4746 75.0456 75.0696 77.9705 75.6685 77.7497C76.0808 77.5985 77.0479 74.4443 77.7385 72.0561C78.1474 70.6446 78.4596 69.4998 78.502 69.4047L78.5037 69.3996C78.4969 69.4624 78.39 70.5427 78.5258 71.961C78.5342 72.0527 78.5444 72.1462 78.5546 72.2413C78.558 72.2651 78.5614 72.2905 78.5631 72.316C78.6242 72.8239 78.7192 73.3657 78.86 73.9144C79.0687 74.7229 79.1688 75.7879 79.2061 76.9123V76.9174C79.2061 76.9259 79.2061 76.9344 79.2078 76.9429C79.2078 76.9684 79.2095 76.9939 79.2095 77.021C79.2095 77.0312 79.2112 77.0414 79.2112 77.0533C79.2706 79.0984 79.1281 81.3014 79.0704 82.4751C78.9788 84.2926 79.576 85.1113 79.593 85.1334L80.2241 85.045L80.6805 84.9805L80.6856 84.9788L81.2947 84.8939L83.6854 84.5575L84.5507 84.4352L84.756 84.4064L86.2711 84.1941L90.5433 83.5928L91.0116 83.5265L91.205 83.4993L92.8152 83.2717L93.5431 83.1698H93.5465C93.5465 83.1698 94.1658 78.779 94.2116 76.4062C94.254 74.2269 95.4196 69.8005 95.6096 69.0922C95.6113 69.0871 95.613 69.082 95.613 69.0769C95.6147 69.0701 95.6164 69.0633 95.6181 69.0582C95.6215 69.0463 95.6249 69.0361 95.6266 69.0276C95.6283 69.0225 95.63 69.0174 95.63 69.0123C95.63 69.0106 95.63 69.0089 95.6317 69.0089C95.6317 69.0072 95.6334 69.0055 95.6334 69.0038C95.6351 68.9987 95.6351 68.997 95.6351 68.997C95.6351 68.997 99.1218 72.6642 99.7987 74.2643C100.006 74.7501 100.635 76.0698 101.439 77.6784C101.989 76.6287 102.332 75.9 102.332 75.7165C102.332 75.6945 102.332 75.6707 102.33 75.6452C102.279 74.0638 100.623 67.6484 99.3152 63.458C98.3006 61.4164 97.4251 59.7637 97.1451 59.5632C96.7193 59.2575 94.9293 58.4897 93.3683 57.8698C93.3174 57.8494 93.2665 57.829 93.2156 57.8103C93.0697 57.7526 92.9255 57.6965 92.7864 57.6422C92.7168 57.615 92.6472 57.5895 92.5794 57.5623C92.542 57.5487 92.5047 57.5352 92.4691 57.5199C92.4385 57.508 92.4097 57.4978 92.3791 57.4859C91.5987 57.1886 91.0048 56.9814 90.8827 56.9746C90.8623 56.9729 90.8301 56.9729 90.786 56.9746C90.7351 56.9763 90.6672 56.978 90.5891 56.9831C89.6237 57.0392 86.7428 57.3092 85.8147 57.3976C85.6467 57.4129 85.5415 57.4231 85.5263 57.4247C85.5246 57.4247 85.5246 57.4247 85.5246 57.4247C85.5246 57.4247 85.0834 57.6269 84.4183 57.9309L84.3572 57.9598C83.9551 58.1449 83.4902 58.3895 82.9982 58.6596C82.0345 59.1879 80.969 59.8061 80.0867 60.2274C79.2214 60.6401 78.0354 61.2142 77.9336 61.2941L73.546 73.9585L65.9347 72.5657L66.3792 75.3412Z" fill="#DDCAC3"/>
<path d="M79.5929 85.1316C79.5929 85.1316 79.2723 85.5172 79.179 87.1461C79.179 87.1461 92.3944 85.6021 93.7907 84.994C93.7907 84.994 93.845 83.1986 93.5498 83.1664C93.2241 83.1324 79.5929 85.1316 79.5929 85.1316Z" fill="#495055"/>
<path d="M90.8642 56.5194C90.8235 58.5951 86.8074 59.7314 86.8074 59.7314C86.8074 59.7314 85.1277 57.6235 85.5281 57.4214C85.6859 57.3415 85.7504 57.0273 85.7691 56.674C85.7877 56.3377 85.7657 55.9674 85.7453 55.733C85.7334 55.5852 85.7215 55.4918 85.7215 55.4918C85.7215 55.4918 86.295 54.8854 87.0246 54.1635C88.3005 52.9015 90.0532 51.2828 90.0566 51.9265C90.0566 51.9605 90.0515 52.0013 90.0413 52.0488C89.7359 53.496 90.8642 56.5194 90.8642 56.5194Z" fill="#E7A585"/>
<path d="M90.5298 83.4858C90.5298 83.4858 90.8182 85.3066 90.8437 85.7822L91.4545 85.6599C91.4545 85.6599 91.2865 83.7338 91.1864 83.411L90.5298 83.4858Z" fill="#353A3D"/>
<path d="M80.6958 84.9192C80.6958 84.9192 80.4633 86.5753 80.4583 87.2004L81.1047 87.1155C81.1047 87.1155 81.237 85.0483 81.3117 84.8326L80.6958 84.9192Z" fill="#353A3D"/>
<path d="M89.3165 53.4754C89.3081 53.4873 89.1384 53.7438 88.8466 54.109C88.2307 54.8852 87.0718 56.1608 85.7688 56.6721C85.7874 56.3358 85.7654 55.9655 85.745 55.7311C85.611 55.7277 85.4787 55.7124 85.3463 55.6836C85.7043 55.0585 86.2201 54.4028 86.2201 54.4028L87.026 54.1616L89.3165 53.4754Z" fill="#A4775F"/>
<path d="M90.0871 51.9535C89.7393 52.7094 89.4101 53.258 89.3168 53.4754C89.2557 53.6164 89.0894 53.8474 88.8485 54.109C88.1868 54.8224 86.9567 55.7634 85.747 55.7311C85.6129 55.7277 85.4806 55.7125 85.3483 55.6836C84.8596 55.5766 84.2827 55.349 83.9655 54.7273C81.4595 49.8168 83.2732 45.8014 83.2732 45.8014C83.2732 45.8014 90.1227 43.8616 91.195 45.927C91.9484 47.3759 90.9032 50.1768 90.0871 51.9535Z" fill="#E7A585"/>
<path d="M83.2732 45.8015C83.2732 45.8015 82.6369 45.7658 82.4791 44.5581C82.3231 43.3657 82.6386 43.0345 82.6386 43.0345C82.6386 43.0345 85.467 41.8489 86.4816 41.696C87.4979 41.5415 89.9937 41.3937 90.5791 42.0646C90.5791 42.0646 92.0009 41.7334 92.3895 44.0978C93.0037 47.8482 90.2941 51.4883 90.2941 51.4883C90.2941 51.4883 90.3178 49.0389 89.7783 48.7145C89.2387 48.3901 88.7721 49.1612 88.7721 49.1612L87.6676 49.36C87.6676 49.36 89.3439 45.7352 87.3333 45.601C85.3245 45.4669 84.4252 46.0121 83.2732 45.8015Z" fill="#434343"/>
<path d="M88.8041 48.1846C88.9093 47.106 90.8588 46.6933 90.7281 47.8245C90.5975 48.9558 89.6371 50.0428 89.1943 50.0038C88.7498 49.9664 88.7243 49.0067 88.8041 48.1846Z" fill="#E7A585"/>
<path d="M102.335 75.7114C102.335 75.6894 102.335 75.6656 102.334 75.6401C102.296 74.0621 101.521 67.7435 100.213 63.5531C99.5781 61.5183 99.4322 60.0966 99.1862 59.9199C98.7603 59.6142 94.975 58.4931 93.37 57.863C93.3191 57.8426 93.2682 57.8222 93.2173 57.8035C93.0713 57.7458 92.9271 57.6897 92.788 57.6354C92.7184 57.6082 92.6489 57.5827 92.581 57.5555C92.5437 57.5419 92.5063 57.5284 92.4707 57.5131C92.4402 57.5012 92.4113 57.491 92.3808 57.4791C92.3791 57.4808 92.3757 57.4842 92.3723 57.4876C92.2298 57.6473 91.4866 58.4931 90.5993 59.7552C88.9416 62.1162 86.78 65.9396 87.1109 69.4692C87.2161 70.6022 87.3484 72.2294 87.569 74.0553C87.5877 74.2116 87.608 74.3679 87.6284 74.5275C87.681 74.9471 87.7404 75.3768 87.8048 75.8117C87.8439 76.0715 87.8829 76.3348 87.9253 76.5998C88.3647 79.3362 89.7408 81.2029 90.9624 83.4348C90.9725 83.4535 90.9827 83.4722 90.9946 83.4908C90.9997 83.501 91.0065 83.5129 91.0116 83.5231C91.037 83.5707 91.0642 83.6182 91.0896 83.6658C91.132 83.7439 91.1728 83.8221 91.2152 83.9019C91.2389 83.9478 91.2627 83.9919 91.2864 84.0378C91.5206 84.4862 91.7496 84.9465 91.9719 85.4085C92.1161 85.7058 92.2569 86.0047 92.3944 86.3037C92.4079 86.3342 92.4232 86.3648 92.4368 86.3971C92.4368 86.3971 92.6624 86.9202 92.9509 87.5929C93.0561 87.8392 93.1714 88.1058 93.2868 88.3742C93.3666 88.5576 93.4446 88.7428 93.521 88.9228C93.5888 89.0791 93.6533 89.2337 93.7161 89.378C93.8552 89.7025 93.9757 89.9861 94.0605 90.1832C94.1233 90.3309 94.1657 90.4312 94.1793 90.4651C94.6001 91.5182 94.9038 92.3318 95.0429 92.7106C95.0989 92.8635 95.1277 92.9467 95.1277 92.9467L99.3559 90.6112C100.158 90.2086 99.7393 88.043 99.4373 87.1971C99.1862 86.4939 98.8333 85.7397 98.4363 84.9601C98.2734 84.6408 98.1037 84.318 97.9289 83.9936C99.2524 81.6802 100.591 79.2937 101.441 77.6716C101.992 76.6236 102.335 75.8949 102.335 75.7114ZM95.6147 69.0888C95.6164 69.0837 95.6181 69.0786 95.6181 69.0735C95.6198 69.0667 95.6215 69.0599 95.6232 69.0548C95.6265 69.0446 95.6282 69.0344 95.6316 69.0242C95.6333 69.0191 95.635 69.014 95.635 69.0089C95.635 69.0072 95.635 69.0055 95.6367 69.0055C95.6367 69.0038 95.6384 69.0021 95.6384 69.0004C95.6384 69.0004 97.6948 72.2192 97.5404 75.0133C97.5167 75.4482 97.084 76.5488 96.4545 77.9569C96.4545 77.9586 96.4545 77.9586 96.4528 77.9603C96.2238 78.4733 95.9693 79.0287 95.6978 79.6079C95.6876 79.5842 95.6774 79.5587 95.6673 79.5349C95.2736 78.5735 95.0174 77.6716 95.0174 76.8851C95.0191 76.8851 95.1922 70.7516 95.6147 69.0888Z" fill="#3865A7"/>
<path d="M63.5696 71.0488L73.1422 73.1364L77.7046 61.1904C77.8047 61.1105 79.1146 60.4056 79.9799 59.9929C80.8808 59.5632 82.0227 59.0332 83.0356 58.5644C83.5191 58.3402 83.9739 58.1313 84.359 57.9546L84.3912 57.9801C84.3912 57.9801 83.8262 59.8638 83.095 64.5654V64.5671C83.0695 64.7251 83.0458 64.8864 83.0203 65.0495C83.0186 65.0682 83.0152 65.0886 83.0118 65.1073C82.9949 65.216 82.9779 65.3264 82.9626 65.4385C82.9609 65.4521 82.9592 65.4657 82.9558 65.4775C82.944 65.5523 82.9338 65.6287 82.9236 65.7052C82.8965 65.8903 82.8693 66.0805 82.8405 66.2725C82.5147 68.5604 82.0566 72.4552 81.6172 76.3874V76.3891C81.2693 79.4873 80.4787 82.6687 80.2259 85.0416C80.2259 85.0433 80.2259 85.045 80.2259 85.0467C80.1767 85.5121 80.0579 86.132 79.8967 86.8302C79.8781 86.91 79.8594 86.9898 79.8407 87.0713C79.1332 90.0659 77.7572 94.3072 77.7572 94.3072L77.3568 93.9369L76.1708 92.8414C75.8976 92.59 75.7941 92.2027 75.9044 91.8477C76.5627 89.7228 78.7973 82.205 79.2079 76.919C79.2079 76.9173 79.2079 76.9157 79.2079 76.914C79.3368 75.2528 78.8516 73.6884 78.5699 72.2055C78.5648 72.2191 78.5597 72.231 78.5563 72.2446C78.3205 72.9003 78.0609 73.6119 77.7979 74.3067C77.0921 76.17 76.371 77.8957 76.069 78.0061C75.4005 78.2524 62.7959 74.8026 62.7076 74.3067L63.5696 71.0488Z" fill="#3865A7"/>
<path d="M91.2697 62.6325L89.3168 63.7349L90.1516 64.5876L87.9289 76.5998C87.4759 73.7836 87.2689 71.1101 87.1162 69.4709C86.6055 64.0135 92.0468 57.8562 92.3844 57.4791C92.6457 57.5793 92.9273 57.688 93.2192 57.8035L91.2697 62.6325Z" fill="#4D6C9E"/>
<path d="M84.4217 57.9257C84.4217 57.9257 83.6921 60.3122 82.8404 66.269C82.5146 68.557 82.0565 72.4518 81.6171 76.3839L81.1624 65.1327L82.0938 64.1237L81.2658 63.0893L83.0355 58.5643C83.519 58.3401 83.9738 58.1312 84.3589 57.9546L84.4217 57.9257Z" fill="#4D6C9E"/>
<path d="M92.4824 57.5028L90.8621 56.5177C90.8621 56.5177 90.8162 57.4077 86.8053 59.7296L87.9438 62.9416L92.4824 57.5028Z" fill="#F3E1D8"/>
<path d="M85.7401 56.9662C85.7401 56.9662 85.8029 57.9258 86.8073 59.7297L84.5846 62.6308L84.4218 57.9241L85.7401 56.9662Z" fill="#F3E1D8"/>
<path d="M86.8125 59.7314C86.8125 59.7314 87.2435 61.4571 87.0874 61.9395C87.0874 61.9395 86.1407 62.2843 85.4586 61.8529C85.4603 61.8529 85.9422 60.6452 86.8125 59.7314Z" fill="#FE5F5F"/>
<path d="M84.5848 84.6153C84.3439 83.3974 84.5729 79.7506 84.5831 79.596L84.7901 79.6096C84.7884 79.647 84.5526 83.3855 84.7884 84.5762L84.5848 84.6153Z" fill="#AD9F99"/>
<path d="M86.2727 84.0548C86.2727 84.0548 84.3283 84.2875 83.6853 84.4471L83.7701 86.6298L86.3169 86.358L86.2727 84.0548Z" fill="#68737A"/>
<path d="M85.8468 61.6982C85.8468 61.6982 83.6785 67.1811 84.0314 73.318C84.3979 79.6808 85.0002 81.9875 85.0002 81.9875L86.3372 83.6657L86.9276 81.6019C86.9276 81.6019 85.1325 73.4896 86.2914 65.5964C86.5018 64.1662 86.8122 61.4553 86.8122 61.4553L85.8468 61.6982Z" fill="#FE5F5F"/>
<path d="M92.3639 87.5911C92.3639 87.5911 91.899 88.5236 91.4324 88.6782C90.9675 88.8328 90.2888 89.5903 90.2888 89.5903L93.5651 91.3178C93.5651 91.3178 94.4372 89.609 94.4762 88.5219C94.5153 87.4366 92.3639 87.5911 92.3639 87.5911Z" fill="#E7A585"/>
<path d="M92.0518 87.6794L91.8346 88.1159C91.8346 88.1159 93.9164 89.6396 94.4763 89.7364L94.6681 89.1538L92.0518 87.6794Z" fill="#DDCAC3"/>
<path d="M91.8346 87.6981C91.8346 87.6981 93.3938 88.989 94.7088 89.5852L99.1286 81.6258L96.8381 77.1925C96.8381 77.1925 91.9381 86.9219 91.8346 87.6981Z" fill="#597EB8"/>
<path d="M78.6326 69.4217C78.5596 70.8943 78.5715 72.2022 78.5715 72.2022C78.5715 72.2022 78.5715 72.2022 78.5715 72.2039C78.5715 72.2107 78.5698 72.2515 78.5664 72.316C78.563 72.2905 78.5596 72.2668 78.5579 72.2413C78.3221 72.8969 78.0625 73.6086 77.7995 74.3033C77.7384 73.4999 77.7231 72.7508 77.7401 72.0561C77.8453 67.9269 79.1433 65.763 79.1433 65.763C78.843 66.4832 78.7004 68.0272 78.6326 69.4217Z" fill="#2F4261"/>
<path d="M98.4381 84.9617L94.8988 89.2404L97.9308 83.9952C98.1055 84.3196 98.2752 84.6441 98.4381 84.9617Z" fill="#2F4261"/>
<path d="M72.7401 79.5977H64.5706C64.0107 79.5977 63.5237 79.2138 63.3914 78.6686L59.8419 63.9998C59.657 63.2354 60.2355 62.5 61.0211 62.5H69.1906C69.7505 62.5 70.2375 62.8838 70.3698 63.4291L73.9193 78.0978C74.1042 78.8622 73.5256 79.5977 72.7401 79.5977Z" fill="#313555"/>
<path d="M62.7467 75.5196C63.1471 75.1493 63.9174 74.9336 64.5774 74.4919C65.2374 74.0503 64.686 73.5951 64.686 73.5951C65.3646 73.3624 65.2917 73.0516 65.2052 72.8409C65.0881 72.5556 64.3466 72.6371 64.3466 72.6371C64.3466 72.6371 65.0117 72.4893 65.2849 72.3687C65.5581 72.2481 65.4647 71.7708 65.0457 71.6197C64.6249 71.4685 62.9112 71.8914 62.9112 71.8914C62.9112 71.8914 63.1912 71.7539 64.0361 71.3292C64.8811 70.9046 65.066 70.519 64.5689 70.3339C64.2228 70.2048 63.5424 70.4748 62.236 71.353C61.2519 72.0154 61.3316 72.1004 61.3316 72.1004C61.3316 72.1004 62.2699 75.9629 62.7467 75.5196Z" fill="#E7A585"/>
<path d="M97.9785 135.19C97.9785 135.19 96.0324 137.928 96.2988 138.361C96.5652 138.794 98.6131 138.857 99.8584 138.361C101.105 137.865 101.134 134.656 101.698 133.277C101.933 132.7 101.428 130.996 100.719 130.872C100.008 130.748 99.2358 131.112 99.2358 131.112C99.2358 131.112 99.9738 133.055 97.9785 135.19Z" fill="#FE5F5F"/>
<path d="M99.2238 131.091C99.2238 131.091 98.8149 132.257 98.6639 133.371C98.54 134.295 97.2777 136.255 97.3371 136.503C97.3964 136.751 98.9981 136.975 99.6513 136.336C100.305 135.698 100.724 133.838 100.868 132.725C101.002 131.689 101.17 131.178 101.17 131.178C101.17 131.178 99.8464 130.408 99.2238 131.091Z" fill="#E7A585"/>
<path d="M114.923 135.234C114.923 135.234 113.046 137.926 113.313 138.361C113.579 138.794 115.627 138.857 116.872 138.361C118.118 137.865 118.148 134.657 118.712 133.277C118.947 132.7 118.442 130.996 117.733 130.872C117.023 130.748 116.19 131.137 116.19 131.137C116.19 131.137 116.918 133.101 114.923 135.234Z" fill="#FE5F5F"/>
<path d="M116.192 131.139C116.192 131.139 116.045 132.409 115.807 133.308C115.57 134.206 114.294 136.253 114.353 136.501C114.413 136.749 116.014 136.973 116.667 136.335C117.321 135.696 117.825 133.845 117.884 132.724C117.943 131.603 117.736 130.872 117.736 130.872C117.736 130.872 116.815 130.458 116.192 131.139Z" fill="#E7A585"/>
<path d="M106.815 86.5652C106.815 86.5652 105.144 94.6843 104.76 96.7277C104.377 98.771 103.303 108.672 103.187 110.355C103.072 112.038 101.445 118.381 101.521 118.982C101.597 119.583 99.1068 131.66 99.1068 131.66C99.1068 131.66 99.9568 132.375 100.854 131.725C101.316 131.39 106.319 120.419 106.319 117.413C106.319 113.258 109.261 107.833 109.64 106.904C113.165 98.2683 112.472 95.627 112.931 95.0665C113.391 94.5059 113.432 95.413 113.7 96.6563C113.968 97.898 114.543 108.64 114.889 110.004C115.235 111.366 114.966 115.976 115.159 118.301C115.351 120.626 116.192 131.14 116.192 131.14C116.192 131.14 116.846 132.209 117.76 131.168C117.957 130.943 119.34 119.454 119.379 116.689C119.418 113.924 119.458 110.109 119.531 108.913C120.242 97.4529 121.99 95.8155 119.238 87.7049C114.085 72.5181 106.815 86.5652 106.815 86.5652Z" fill="#E7A585"/>
<path d="M118.033 84.2959C118.033 84.2959 122.793 91.2549 120.743 106.056C120.743 106.056 109.455 107.66 103.406 104.201C103.406 104.201 105.907 88.9397 106.813 86.5651C107.721 84.1906 118.033 84.2959 118.033 84.2959Z" fill="#FE5F5F"/>
<path d="M101.75 133.036V135.903H101.395V133.688L101.75 133.036Z" fill="#FE5F5F"/>
<path d="M118.766 133.036V135.903H118.41V133.688L118.766 133.036Z" fill="#FE5F5F"/>
<path d="M112.39 53.4417C112.39 53.4417 109.202 56.6553 110.288 60.7947C111.374 64.9341 113.118 64.9562 115.04 63.1761C116.963 61.396 118.094 59.5225 118.349 57.4418C118.603 55.361 115.302 50.5745 112.39 53.4417Z" fill="#E7A585"/>
<path d="M111.767 67.2459C111.767 67.2459 112.239 66.164 112.571 64.9444C112.629 64.7287 112.683 64.5096 112.729 64.2921C112.892 63.5261 112.958 62.7702 112.784 62.2522C112.276 60.7489 115.972 61.7902 115.972 61.7902C115.972 61.7902 115.256 65.7665 115.972 67.1084C116.688 68.4485 111.767 67.2459 111.767 67.2459Z" fill="#E7A585"/>
<path d="M121.133 69.1397C120.551 67.9778 120.117 67.6025 118.992 67.2475C118.362 67.0487 115.552 66.3167 115.552 66.3167L112.176 66.1927C112.176 66.1927 109.853 66.5799 108.053 67.205C106.251 67.8301 103.891 71.2459 103.891 71.2459C103.891 71.2459 107.147 78.8996 107.771 81.0958C108.394 83.292 107.98 86.6909 107.98 86.6909C111.884 88.8175 118.143 86.4836 118.143 86.4836C117.668 84.7681 117.65 82.7638 117.899 81.3421C117.928 81.1739 117.962 81.0143 117.997 80.8648C118.031 80.7272 118.077 80.5319 118.131 80.3128C118.133 80.3026 118.137 80.2924 118.138 80.2839C120.62 80.5387 122.948 80.6423 123.009 80.1429C123.283 77.8974 121.934 70.738 121.133 69.1397ZM119.412 77.8669C119.312 77.8516 119.1 77.8499 118.875 77.8312C119.149 77.0617 119.457 76.3789 119.457 76.3789C119.635 76.8698 120.303 77.9993 119.412 77.8669Z" fill="#EBD9D2"/>
<path d="M113.43 55.7533C113.43 55.7533 114.954 58.5288 115.902 59.5224C116.849 60.5161 116.739 61.3059 116.739 61.3059C116.739 61.3059 120.429 56.747 117.797 53.9953C115.164 51.2437 111.769 52.3528 110.776 54.758C109.784 57.1631 110.147 60.1 110.147 60.1C110.147 60.1 110.174 57.2804 113.43 55.7533Z" fill="#D28853"/>
<path d="M114.436 52.8488C114.436 52.8488 114.068 50.8173 117.249 50.0105C120.431 49.202 121.861 52.8726 121.469 55.1113C121.077 57.35 118.357 63.0283 119.832 63.7672C121.308 64.506 121.883 62.9128 121.883 62.9128C121.883 62.9128 121.421 65.7052 119.37 65.0598C117.319 64.4143 117.595 59.8741 117.904 58.0668C118.215 56.2561 114.436 52.8488 114.436 52.8488Z" fill="#D28853"/>
<path d="M115.461 62.7736C115.449 62.8024 114.645 64.6556 112.572 64.9443C112.629 64.7286 112.684 64.5095 112.73 64.2921C112.73 64.2921 113.866 64.5214 115.461 62.7736Z" fill="#A4775F"/>
<path d="M119.413 76.4045C119.413 76.4045 119.26 76.7255 118.844 77.9875C118.42 74.4392 118.642 72.5929 118.642 72.5929C118.688 74.4902 119.413 76.4045 119.413 76.4045Z" fill="#CFBDB7"/>
<path d="M114.932 52.4226C114.932 52.4226 117.19 52.8574 118.317 54.6987C118.317 54.6987 118.087 53.0307 116.964 52.55C115.839 52.0693 114.932 52.4226 114.932 52.4226Z" fill="#EBD9D2"/>
<path d="M118.13 80.3128C118.076 80.5319 118.03 80.7273 117.996 80.8649C117.959 81.0143 117.926 81.174 117.898 81.3422C116.5 80.5812 115.495 79.985 115.495 79.985C115.87 80.0699 118.13 80.3128 118.13 80.3128Z" fill="#CFBDB7"/>
<path d="M115.741 66.3659L111.767 69.6085L112.176 66.1927C112.176 66.1927 114.494 65.6916 115.741 66.3659Z" fill="#E7A585"/>
<path d="M112.916 69.0583L111.767 69.6086L115.67 65.7359L112.916 69.0583Z" fill="#D5C4BD"/>
<path d="M118.364 80.0325C117.818 82.3018 119.84 87.4094 119.84 87.4094L115.829 88.6646C115.252 88.8447 114.645 88.4914 114.517 87.8986C113.98 85.4 112.721 79.2478 112.571 75.8286C112.38 71.465 115.552 66.3167 115.552 66.3167C121.192 67.2849 119.647 75.8286 119.647 75.8286C119.647 75.8286 119.441 76.3671 119.168 77.2078C119.099 77.4185 119.026 77.6495 118.951 77.8958C118.757 78.5259 118.55 79.2597 118.364 80.0325Z" fill="#7099D8"/>
<path d="M111.778 66.3795L111.847 66.1927C111.847 66.1927 108.959 66.6326 107.49 67.3664C106.022 68.1001 103.211 71.893 103.211 71.893L106.886 76.7509C106.891 80.4843 106.285 87.1223 106.285 87.1223L107.967 88.0922C108.418 88.352 108.985 88.0327 108.993 87.5112C109.041 84.9872 109.155 78.993 109.214 76.0885C109.29 72.355 111.952 66.315 111.952 66.315C111.893 66.337 111.835 66.3574 111.778 66.3795Z" fill="#7099D8"/>
<path d="M106.54 83.8848C106.54 83.8848 109.312 83.9935 109.743 83.8848C110.174 83.7761 113.05 82.5277 113.223 81.2945C113.396 80.0614 106.54 82.4003 106.54 82.4003V83.8848Z" fill="#E7A585"/>
<path d="M115.138 80.0326L103.891 78.7145L108.973 82.8522L115.138 80.0326Z" fill="#B5A5A0"/>
<path d="M108.973 82.8521L115.139 80.7493V80.0325L108.764 82.0793L108.973 82.8521Z" fill="#EBD9D2"/>
<path d="M111.872 77.9638C111.872 77.9638 110.943 77.9638 110.422 77.8585C110.018 77.777 109.017 77.8891 108.761 78.1167C108.505 78.3426 107.694 79.9222 107.539 80.0174C107.386 80.1142 107.617 80.3367 107.887 80.2246C107.887 80.2246 108.135 80.9159 108.746 80.656C109.356 80.3978 109.772 79.8322 110.091 79.7337C110.412 79.6335 112.275 79.1324 112.275 79.1324C112.275 79.1324 112.351 77.7957 111.872 77.9638Z" fill="#E7A585"/>
<path d="M112.389 65.5627L110.247 68.9564L109.214 69.6087L111.623 66.2285L112.389 65.5627Z" fill="#F8E5DD"/>
<path d="M110.247 68.9564L111.767 69.6087L112.176 66.1928L112.388 65.5627L110.247 68.9564Z" fill="#D5C4BD"/>
<path d="M106.877 82.2986C106.877 82.2986 106.762 83.7322 106.877 84.0328C106.877 84.0328 99.9413 83.3398 99.2949 82.3682C98.6484 81.3966 98.6705 80.2178 98.6705 80.2178L106.877 82.2986Z" fill="#F09E4A"/>
<path d="M108.973 82.8522L105.693 70.6446L93.2209 69.3265L96.6397 80.5642L108.973 82.8522Z" fill="#EBD9D2"/>
<path d="M115.67 65.7359L112.916 69.0583L114.423 70.4035L116.05 66.4255L115.67 65.7359Z" fill="#F8E5DD"/>
<path d="M119.26 76.9259L119.168 77.2079C119.099 77.4185 119.026 77.6495 118.951 77.8958C118.418 78.0639 113.812 77.7242 113.812 77.7242C113.812 77.7242 117.667 76.8189 119.26 76.9259Z" fill="#3865A7"/>
<path d="M118.995 77.8059C118.254 77.7499 117.037 77.67 116.043 77.6666C114.496 77.6598 111.847 77.8331 111.847 77.8331L112.163 79.4892C112.163 79.4892 116.852 80.2518 119.414 80.4319C119.414 80.4319 122.794 80.8208 123.045 80.3164C123.296 79.8119 122.962 76.5694 122.412 73.6495C121.863 70.728 121.298 69.0464 120.626 68.1445C119.954 67.2426 116.403 66.5394 116.403 66.5394L119.414 76.408C119.414 76.408 119.847 77.2878 119.823 77.6683C119.817 77.7838 119.737 77.8382 119.628 77.8586C119.552 77.8518 119.386 77.8382 119.157 77.8195L118.995 77.8059Z" fill="#7099D8"/>
</svg>
