<svg width="205" height="190" viewBox="0 0 205 190" fill="none" xmlns="http://www.w3.org/2000/svg">
<path d="M71.0736 42.0418C48.4239 23.9128 -3.67244 60.2026 16.6013 101.282C36.8751 142.362 49.4594 110.989 89.8814 147.042C111.724 166.524 134.562 177.616 168.706 117.95C190.587 79.7128 171.409 14.7538 145.285 19.6898C119.162 24.6258 119.2 80.5622 71.0736 42.0418Z" fill="#F1F2F2"/>
<g opacity="0.61">
<g opacity="0.61">
<g opacity="0.61">
<path opacity="0.61" d="M126.507 108.388L130.395 107.371C131.195 107.161 132.016 107.645 132.226 108.445L133.013 111.452C134.121 111.464 135.225 111.616 136.299 111.907L137.871 109.226C138.289 108.512 139.21 108.27 139.925 108.69L143.392 110.721C144.106 111.138 144.348 112.06 143.928 112.774L142.358 115.455C143.136 116.25 143.81 117.14 144.363 118.099L147.369 117.313C148.17 117.103 148.994 117.586 149.201 118.387L150.218 122.275C150.428 123.076 149.944 123.897 149.144 124.107L146.137 124.893C146.125 126.002 145.973 127.105 145.682 128.179L148.363 129.752C149.077 130.169 149.319 131.091 148.899 131.805L146.868 135.273C146.451 135.987 145.529 136.229 144.815 135.808L142.134 134.239C141.339 135.016 140.449 135.69 139.49 136.243L140.276 139.25C140.486 140.05 140.002 140.874 139.202 141.081L135.314 142.098C134.513 142.308 133.692 141.825 133.482 141.024L132.696 138.017C131.587 138.006 130.484 137.853 129.41 137.562L127.84 140.243C127.423 140.958 126.501 141.2 125.787 140.779L122.319 138.749C121.605 138.331 121.363 137.409 121.784 136.695L123.356 134.014C122.578 133.219 121.905 132.332 121.352 131.37L118.348 132.153C117.547 132.364 116.723 131.88 116.516 131.079L115.499 127.191C115.289 126.391 115.773 125.57 116.574 125.36L119.577 124.576C119.592 123.467 119.745 122.364 120.033 121.29L117.351 119.718C116.637 119.3 116.395 118.378 116.816 117.664L118.846 114.197C119.266 113.482 120.185 113.243 120.899 113.661L123.581 115.231C124.376 114.453 125.265 113.779 126.225 113.226L125.438 110.219C125.225 109.419 125.706 108.598 126.507 108.388ZM136.621 112.711L136.365 112.636C135.187 112.293 133.972 112.123 132.751 112.135L132.486 112.137L131.567 108.618C131.452 108.18 131.005 107.918 130.568 108.033L126.68 109.05C126.242 109.165 125.98 109.612 126.095 110.049L127.014 113.569L126.78 113.696C125.712 114.283 124.733 115.023 123.872 115.899L123.684 116.089L120.545 114.251C120.156 114.024 119.652 114.153 119.425 114.545L117.394 118.013C117.167 118.401 117.297 118.905 117.688 119.133L120.827 120.973L120.753 121.23C120.41 122.408 120.24 123.623 120.251 124.844L120.254 125.109L116.738 126.028C116.3 126.143 116.038 126.589 116.153 127.027L117.17 130.915C117.285 131.353 117.731 131.615 118.169 131.5L121.686 130.581L121.812 130.814C122.4 131.886 123.14 132.862 124.016 133.72L124.206 133.907L122.365 137.047C122.138 137.435 122.267 137.939 122.659 138.167L126.127 140.197C126.515 140.425 127.017 140.295 127.247 139.904L129.084 136.764L129.341 136.839C130.519 137.182 131.734 137.352 132.955 137.34L133.22 137.337L134.139 140.857C134.254 141.295 134.7 141.557 135.138 141.441L139.026 140.425C139.464 140.31 139.726 139.863 139.611 139.425L138.692 135.906L138.925 135.779C139.994 135.192 140.973 134.452 141.831 133.576L142.018 133.386L145.158 135.224C145.546 135.451 146.05 135.321 146.278 134.93L148.308 131.462C148.536 131.073 148.406 130.569 148.015 130.342L144.875 128.502L144.95 128.245C145.293 127.067 145.463 125.852 145.451 124.631L145.449 124.366L148.968 123.447C149.406 123.332 149.668 122.886 149.553 122.448L148.536 118.56C148.421 118.122 147.974 117.86 147.537 117.975L144.017 118.894L143.888 118.661C143.3 117.592 142.56 116.613 141.684 115.755L141.494 115.568L143.332 112.428C143.559 112.04 143.43 111.536 143.038 111.308L139.57 109.278C139.182 109.05 138.678 109.18 138.45 109.571L136.621 112.711ZM130.452 115.547C135.518 114.225 140.717 117.27 142.039 122.336C143.361 127.401 140.316 132.6 135.25 133.922C130.185 135.244 124.986 132.2 123.661 127.134C122.342 122.068 125.386 116.869 130.452 115.547ZM135.081 133.262C139.784 132.035 142.609 127.211 141.382 122.508C140.155 117.805 135.331 114.98 130.628 116.207C125.925 117.434 123.1 122.258 124.327 126.961C125.553 131.664 130.377 134.489 135.081 133.262Z" fill="white"/>
</g>
</g>
<g opacity="0.61">
<g opacity="0.61">
<path opacity="0.61" d="M51.3448 79.052L55.2328 78.0353C56.0335 77.8251 56.8543 78.3089 57.0645 79.1096L57.8479 82.1163C58.9567 82.1278 60.0597 82.2805 61.1339 82.5713L62.7064 79.8901C63.124 79.1758 64.0456 78.9339 64.7599 79.3544L68.2274 81.3848C68.9416 81.8024 69.1835 82.724 68.7631 83.4382L67.1935 86.1195C67.9711 86.9144 68.645 87.8043 69.1979 88.7633L72.2047 87.9771C73.0053 87.7669 73.829 88.2507 74.0363 89.0513L75.053 92.9393C75.2632 93.74 74.7794 94.5608 73.9787 94.771L70.972 95.5573C70.9605 96.6661 70.8079 97.7691 70.517 98.8433L73.1983 100.416C73.9125 100.833 74.1544 101.755 73.7339 102.469L71.7035 105.937C71.2859 106.651 70.3643 106.893 69.6501 106.472L66.9688 104.903C66.1739 105.68 65.284 106.354 64.325 106.907L65.1112 109.914C65.3215 110.715 64.8376 111.538 64.037 111.746L60.149 112.762C59.3483 112.973 58.5275 112.489 58.3173 111.688L57.5311 108.681C56.4223 108.67 55.3192 108.517 54.245 108.226L52.6754 110.908C52.2578 111.622 51.3362 111.864 50.6219 111.443L47.1544 109.413C46.4402 108.995 46.1983 108.074 46.6187 107.359L48.1912 104.678C47.4136 103.883 46.7397 102.996 46.1867 102.034L43.1829 102.818C42.3823 103.028 41.5586 102.544 41.3512 101.743L40.3346 97.8555C40.1243 97.0549 40.6082 96.2341 41.4088 96.0238L44.4127 95.2405C44.4271 94.1317 44.5797 93.0286 44.8677 91.9544L42.1864 90.3819C41.4722 89.9643 41.2303 89.0427 41.6507 88.3285L43.6811 84.8609C44.1016 84.1467 45.0203 83.9077 45.7346 84.3253L48.4159 85.8949C49.2107 85.1173 50.1007 84.4433 51.0597 83.8904L50.2735 80.8837C50.0632 80.083 50.5442 79.2593 51.3448 79.052ZM61.4594 83.372L61.2031 83.2971C60.0251 82.9544 58.8098 82.7845 57.5887 82.796L57.3237 82.7989L56.405 79.2795C56.2898 78.8417 55.8434 78.5797 55.4056 78.6949L51.5176 79.7115C51.0799 79.8267 50.8178 80.2731 50.933 80.7109L51.8517 84.2302L51.6184 84.3569C50.5499 84.9445 49.5707 85.6846 48.7096 86.5601L48.5224 86.7502L45.3832 84.9128C44.9944 84.6853 44.4904 84.8149 44.2629 85.2065L42.2325 88.6741C42.005 89.0629 42.1346 89.5669 42.5263 89.7944L45.6655 91.6347L45.5906 91.891C45.2479 93.0689 45.0779 94.2843 45.0895 95.5054L45.0923 95.7704L41.5759 96.6891C41.1381 96.8043 40.876 97.2507 40.9912 97.6885L42.0079 101.576C42.1231 102.014 42.5695 102.276 43.0072 102.161L46.5237 101.242L46.6504 101.476C47.2379 102.547 47.9781 103.523 48.8536 104.382L49.0437 104.569L47.2034 107.708C46.9759 108.097 47.1055 108.601 47.4971 108.828L50.9647 110.859C51.3535 111.086 51.8546 110.957 52.085 110.565L53.9224 107.426L54.1787 107.501C55.3567 107.843 56.572 108.013 57.7931 108.002L58.0581 107.999L58.9768 111.518C59.092 111.956 59.5384 112.218 59.9762 112.103L63.8642 111.086C64.3019 110.971 64.564 110.525 64.4488 110.087L63.5301 106.567L63.7634 106.441C64.8319 105.853 65.8111 105.113 66.6693 104.238L66.8565 104.047L69.9957 105.885C70.3845 106.112 70.8885 105.983 71.116 105.591L73.1464 102.124C73.3739 101.735 73.2443 101.231 72.8527 101.003L69.7135 99.163L69.7883 98.9067C70.1311 97.7288 70.301 96.5134 70.2895 95.2923L70.2866 95.0273L73.8059 94.1086C74.2437 93.9934 74.5058 93.547 74.3906 93.1093L73.3739 89.2213C73.2587 88.7835 72.8123 88.5214 72.3746 88.6366L68.8552 89.5553L68.7285 89.3221C68.141 88.2536 67.4008 87.2744 66.5253 86.4161L66.3352 86.2289L68.1727 83.0897C68.4002 82.7009 68.2706 82.1969 67.8789 81.9694L64.4114 79.939C64.0226 79.7115 63.5186 79.8411 63.2911 80.2328L61.4594 83.372ZM55.2904 86.2088C60.3563 84.8869 65.5547 87.931 66.8767 92.9969C68.1986 98.0629 65.1544 103.261 60.0885 104.583C55.0226 105.905 49.8242 102.861 48.4994 97.795C47.1746 92.7291 50.2245 87.5307 55.2904 86.2088ZM59.9157 103.924C64.6187 102.697 67.444 97.8728 66.2171 93.1697C64.9903 88.4667 60.1663 85.6414 55.4632 86.8683C50.7602 88.0952 47.9349 92.9192 49.1618 97.6222C50.3915 102.325 55.2155 105.153 59.9157 103.924Z" fill="white"/>
</g>
</g>
<g opacity="0.61">
<path opacity="0.61" d="M129.499 97.5099L131.357 97.9678C131.36 98.6907 131.472 99.3992 131.68 100.073L130.041 101.064C129.73 101.251 129.629 101.657 129.819 101.968L131.003 103.921C131.19 104.232 131.596 104.333 131.907 104.143L133.546 103.152C134.047 103.647 134.623 104.073 135.259 104.413L134.802 106.271C134.715 106.625 134.931 106.982 135.285 107.069L137.503 107.613C137.857 107.699 138.214 107.483 138.301 107.129L138.759 105.271C139.482 105.269 140.19 105.156 140.864 104.949L141.855 106.588C142.042 106.899 142.448 106.999 142.759 106.809L144.712 105.629C145.023 105.441 145.123 105.035 144.933 104.724L143.943 103.086C144.438 102.584 144.864 102.008 145.204 101.369L147.062 101.827C147.416 101.913 147.773 101.697 147.859 101.343L148.404 99.1256C148.49 98.7713 148.274 98.4142 147.92 98.3278L146.062 97.8699C146.059 97.147 145.947 96.4385 145.74 95.7646L147.379 94.7739C147.69 94.5867 147.79 94.1806 147.6 93.8696L146.417 91.9169C146.229 91.6059 145.823 91.5051 145.512 91.6952L143.874 92.6859C143.372 92.1905 142.796 91.7643 142.16 91.4245L142.618 89.5669C142.704 89.2126 142.488 88.8555 142.134 88.7691L139.916 88.2248C139.562 88.1384 139.205 88.3544 139.119 88.7086L138.661 90.5662C137.938 90.5691 137.229 90.6814 136.555 90.8888L135.565 89.2501C135.378 88.939 134.971 88.8382 134.66 89.0283L132.708 90.2091C132.397 90.3963 132.296 90.8024 132.486 91.1134L133.477 92.7521C132.981 93.2533 132.555 93.8293 132.215 94.4686L130.358 94.0107C130.003 93.9243 129.646 94.1403 129.56 94.4945L129.016 96.7121C128.929 97.0664 129.145 97.4235 129.499 97.5099ZM139.948 92.8702C142.736 93.5557 144.444 96.3723 143.758 99.1601C143.073 101.948 140.256 103.656 137.468 102.97C134.681 102.285 132.973 99.4683 133.658 96.6805C134.344 93.8897 137.16 92.1848 139.948 92.8702Z" fill="white"/>
</g>
</g>
<path d="M116.116 131.756L85.0093 145.165C82.4144 146.285 79.4019 145.087 78.2816 142.49L49.6947 76.1718C48.5744 73.5769 49.7725 70.5645 52.3702 69.4441L83.4771 56.0349C86.072 54.9145 89.0845 56.1126 90.2048 58.7104L118.792 125.025C119.909 127.623 118.711 130.635 116.116 131.756Z" fill="#292930"/>
<path d="M112.248 129.368L85.7552 140.787C83.1603 141.908 80.1478 140.71 79.0275 138.112L52.903 77.4995C51.7827 74.9046 52.9808 71.8921 55.5785 70.7718L82.0717 59.3526C84.6665 58.2323 87.679 59.4303 88.7993 62.0281L114.927 122.643C116.041 125.238 114.843 128.248 112.248 129.368Z" fill="white"/>
<path d="M111.505 127.643L85.0121 139.062C82.4173 140.183 79.4538 139.1 78.3968 136.649L53.7152 79.3889C52.6582 76.938 53.9053 74.0407 56.5001 72.9233L82.9933 61.5041C85.5881 60.3837 88.5517 61.4666 89.6086 63.9175L114.29 121.178C115.35 123.629 114.1 126.526 111.505 127.643Z" fill="#C0E4FF"/>
<path d="M78.656 65.1414L62.9283 71.9209C61.9232 72.3558 60.7568 71.8892 60.3219 70.8841L59.4262 68.9228L78.7913 60.4556L79.6928 62.535C80.1248 63.543 79.6611 64.7094 78.656 65.1414Z" fill="#292930"/>
<path d="M64.5556 69.8099C64.1581 69.8099 63.778 69.5766 63.6109 69.1878C63.3863 68.6665 63.6282 68.0618 64.1466 67.8371C64.6679 67.6125 65.2727 67.8544 65.4973 68.3757C65.722 68.897 65.48 69.5017 64.9588 69.7264C64.8292 69.784 64.6909 69.8099 64.5556 69.8099ZM64.5527 68.0416C64.4548 68.0416 64.3568 68.0618 64.2618 68.1021C63.8874 68.2634 63.7146 68.7011 63.8759 69.0755C64.0372 69.4499 64.4749 69.6227 64.8493 69.4614C65.2237 69.3002 65.3965 68.8624 65.2352 68.488C65.1143 68.2115 64.8407 68.0416 64.5527 68.0416Z" fill="white"/>
<path d="M67.6458 68.2057C67.3348 68.2057 67.0353 68.0243 66.9057 67.719C66.8221 67.5232 66.8193 67.3043 66.897 67.1027C66.9777 66.9011 67.1303 66.7456 67.3261 66.6592L74.8574 63.4134C75.0532 63.3299 75.2721 63.327 75.4737 63.4048C75.6753 63.4854 75.8308 63.6381 75.9172 63.8339C76.0929 64.2429 75.9028 64.7181 75.4967 64.8937L67.9655 68.1395C67.8618 68.1856 67.7524 68.2057 67.6458 68.2057ZM75.1742 63.6352C75.105 63.6352 75.0359 63.6496 74.9697 63.6784L67.4385 66.9241C67.1764 67.0365 67.0554 67.3417 67.1677 67.6038C67.2801 67.8659 67.5853 67.9869 67.8474 67.8745L75.3786 64.6288C75.6407 64.5165 75.7617 64.2112 75.6494 63.9491C75.5946 63.8224 75.4938 63.7245 75.3642 63.6726C75.3038 63.6496 75.2375 63.6352 75.1742 63.6352Z" fill="white"/>
<path opacity="0.18" d="M90.3171 65.5591L61.7447 98.0109L65.1776 105.98L92.9523 71.6733L90.3171 65.5591Z" fill="white"/>
<path opacity="0.1" d="M94.9251 76.3907L68.6365 114.147L72.0723 122.114L97.6727 82.7641L94.9251 76.3907Z" fill="white"/>
<path d="M115.923 59.4663C118.074 52.5457 114.273 45.2122 107.433 43.0864C100.593 40.9606 93.304 44.8475 91.1532 51.7681C89.0024 58.6887 92.8037 66.0222 99.6438 68.148C106.484 70.2738 113.772 66.3869 115.923 59.4663Z" fill="#3A93FB"/>
<path d="M115.238 57.8978C117.39 50.9779 113.59 43.6444 106.75 41.5179C99.911 39.3914 92.6225 43.2772 90.4709 50.197C88.3194 57.1169 92.1196 64.4504 98.959 66.5769C105.798 68.7034 113.087 64.8177 115.238 57.8978Z" fill="#3865A7"/>
<path opacity="0.93" d="M112.372 57.008C114.025 51.689 111.104 46.0525 105.847 44.4187C100.59 42.7848 94.9887 45.7722 93.3354 51.0912C91.6822 56.4101 94.6034 62.0466 99.8601 63.6805C105.117 65.3143 110.718 62.327 112.372 57.008Z" fill="white"/>
<path d="M103.07 53.3537C102.814 53.273 102.672 53.0023 102.753 52.7489L104.498 47.1329C104.579 46.8766 104.85 46.7354 105.103 46.8161C105.36 46.8967 105.501 47.1674 105.42 47.4209L103.675 53.0369C103.594 53.2903 103.323 53.4314 103.07 53.3537Z" fill="#9FBFFF"/>
<path d="M102.831 54.212C102.912 53.9557 103.182 53.8145 103.436 53.8952L107.764 55.2401C108.021 55.3208 108.162 55.5915 108.081 55.8449C108.001 56.1013 107.73 56.2424 107.476 56.1617L103.148 54.8168C102.894 54.739 102.753 54.4683 102.831 54.212Z" fill="#9FBFFF"/>
<path d="M104.239 54.4768C103.997 55.2515 103.182 55.6864 102.419 55.4474C101.653 55.2083 101.229 54.3904 101.468 53.6157C101.707 52.841 102.525 52.4061 103.288 52.6451C104.055 52.8813 104.478 53.7021 104.239 54.4768Z" fill="#1B1B25"/>
<path d="M120.779 121.725L96.3623 113.257C94.1102 112.477 92.915 110.017 93.6983 107.762L114.014 49.1746C114.794 46.9224 117.254 45.7272 119.509 46.5106L143.925 54.9778C146.178 55.7583 147.373 58.2178 146.589 60.4728L126.271 119.061C125.491 121.313 123.031 122.508 120.779 121.725Z" fill="#101011"/>
<path d="M120.373 120.581L97.3906 112.612C95.2709 111.878 94.1679 109.496 94.9311 107.299L114.769 50.0904C115.532 47.8901 117.87 46.7036 119.99 47.438L142.972 55.4069C145.092 56.1413 146.195 58.5231 145.432 60.7205L125.594 117.929C124.831 120.129 122.493 121.319 120.373 120.581Z" fill="#282830"/>
<path d="M114.542 53.9328L96.9133 104.775L125.645 114.737L143.274 63.8951L114.542 53.9328Z" fill="white"/>
<path opacity="0.89" d="M130.773 53.9843C130.715 53.9843 130.657 53.9756 130.603 53.9555C130.473 53.9094 130.367 53.8172 130.306 53.6905C130.246 53.5667 130.237 53.4255 130.283 53.2931C130.329 53.1635 130.421 53.0569 130.548 52.9964C130.672 52.9359 130.813 52.9273 130.945 52.9734C131.078 53.0195 131.182 53.1116 131.242 53.2383C131.303 53.3622 131.311 53.5033 131.265 53.6358C131.219 53.7683 131.127 53.8719 131 53.9324C130.928 53.967 130.85 53.9843 130.773 53.9843ZM130.773 53.2326C130.738 53.2326 130.704 53.2412 130.672 53.2556C130.617 53.2815 130.574 53.3305 130.554 53.3881C130.534 53.4457 130.536 53.5091 130.565 53.5638C130.591 53.6185 130.64 53.6617 130.698 53.6819C130.755 53.702 130.819 53.6991 130.873 53.6703C130.928 53.6444 130.971 53.5955 130.992 53.5379C131.012 53.4803 131.009 53.4169 130.98 53.3622C130.954 53.3075 130.905 53.2643 130.848 53.2441C130.824 53.2383 130.799 53.2326 130.773 53.2326Z" fill="white"/>
<path opacity="0.89" d="M132.875 56.5762C132.832 56.5762 132.789 56.5705 132.746 56.5532L127.305 54.6668C127.101 54.5948 126.991 54.3701 127.063 54.1657C127.098 54.0649 127.17 53.9871 127.265 53.941C127.36 53.8949 127.467 53.8892 127.564 53.9237L133.005 55.8101C133.106 55.8447 133.183 55.9167 133.229 56.0117C133.275 56.1068 133.281 56.2133 133.247 56.3141C133.192 56.4725 133.039 56.5762 132.875 56.5762ZM132.841 56.2825C132.895 56.3026 132.956 56.2709 132.976 56.2162C132.985 56.1903 132.985 56.1615 132.97 56.1356C132.959 56.1097 132.936 56.0895 132.91 56.0809L127.469 54.1945C127.443 54.1858 127.415 54.1858 127.389 54.2002C127.363 54.2117 127.343 54.2348 127.334 54.2607C127.314 54.3154 127.346 54.3759 127.4 54.3961L132.841 56.2825Z" fill="white"/>
<g opacity="0.41">
<g opacity="0.41">
<g opacity="0.81">
<path opacity="0.81" d="M115.843 55.9322L99.3608 103.466L125.055 112.375L141.537 64.8415L115.843 55.9322Z" fill="#9FBFFF"/>
</g>
</g>
</g>
<path d="M112.804 115.743C112.675 115.743 112.545 115.72 112.418 115.677L106.673 113.684C106.059 113.471 105.734 112.8 105.947 112.186L105.981 112.085C106.085 111.789 106.298 111.55 106.58 111.411C106.863 111.273 107.182 111.256 107.479 111.359L113.225 113.352C113.838 113.566 114.163 114.237 113.95 114.85L113.916 114.951C113.812 115.247 113.599 115.487 113.317 115.625C113.155 115.703 112.98 115.743 112.804 115.743ZM106.218 112.281C106.056 112.745 106.304 113.252 106.768 113.413L112.513 115.406C112.977 115.567 113.484 115.32 113.645 114.856L113.68 114.755C113.841 114.291 113.593 113.784 113.13 113.623L107.384 111.63C107.159 111.552 106.917 111.567 106.704 111.671C106.491 111.774 106.33 111.956 106.252 112.18L106.218 112.281Z" fill="white"/>
<path opacity="0.18" d="M112.911 58.6441L137.546 80.4227L134.635 88.8208L110.759 64.4185L112.911 58.6441Z" fill="white"/>
<path opacity="0.18" d="M109.207 69.2453L133.843 91.0239L130.931 99.4219L108.458 71.2584L109.207 69.2453Z" fill="white"/>
<path d="M69.6416 57.7536L62.1593 58.4563C60.5696 58.606 59.1468 57.4224 58.9971 55.8268L58.3548 49.0012C58.2051 47.4057 59.383 45.9772 60.9728 45.8275L68.455 45.1248C70.0448 44.975 71.4675 46.1587 71.6172 47.7542L72.2595 54.5798C72.4092 56.1753 71.2313 57.6038 69.6416 57.7536Z" fill="#AA0D0D"/>
<path d="M69.7684 56.7146L62.865 57.3626C61.3991 57.5008 60.0858 56.4122 59.9476 54.9463L59.3572 48.6708C59.219 47.2048 60.3076 45.8916 61.7735 45.7533L68.6769 45.1053C70.1428 44.9671 71.4561 46.0557 71.5943 47.5216L72.1847 53.7972C72.323 55.2631 71.2343 56.5764 69.7684 56.7146Z" fill="#FE5F5F"/>
<path d="M63.4669 54.6697C63.441 54.6697 63.4237 54.6697 63.4151 54.6669L63.3373 54.6352L63.3258 54.5517C63.2077 53.5321 63.6599 52.5328 64.4864 51.9453C63.9623 51.6025 63.6138 51.0467 63.5389 50.416C63.4064 49.2553 64.2387 48.2041 65.3994 48.0717C65.961 48.0054 66.5139 48.1638 66.9575 48.5152C67.401 48.8665 67.6803 49.3705 67.7437 49.9321C67.8157 50.5629 67.6055 51.1821 67.1706 51.6371C68.1095 52.023 68.7776 52.8899 68.8957 53.9094L68.9043 53.9929L68.8381 54.0448C68.7315 54.1225 64.0227 54.6697 63.4669 54.6697ZM65.6528 48.3395C65.5808 48.3395 65.5117 48.3424 65.4397 48.351C64.4375 48.4662 63.7175 49.3763 63.8327 50.3785C63.9047 50.992 64.2762 51.5248 64.832 51.8041L65.0682 51.9222L64.8407 52.0576C64.0199 52.5414 63.5447 53.4429 63.6051 54.3846C64.3194 54.3299 67.8935 53.9181 68.5991 53.8086C68.4435 52.8784 67.7725 52.1094 66.8653 51.8243L66.6119 51.7465L66.8163 51.5766C67.2944 51.1792 67.5363 50.5744 67.4643 49.9609C67.4096 49.4742 67.1677 49.0422 66.7847 48.7369C66.4592 48.4777 66.0618 48.3395 65.6528 48.3395Z" fill="white"/>
<path d="M117.625 134.017L101.143 128.824C100.763 128.703 100.356 128.916 100.235 129.296L99.6768 131.068L99.4032 131.934L96.7161 140.459L96.4829 141.199L96.4483 141.312C96.3273 141.692 96.5405 142.098 96.9206 142.219L113.403 147.412C113.783 147.533 114.189 147.319 114.31 146.939L114.356 146.798L114.566 146.133L117.475 136.905L117.746 136.041L118.097 134.924C118.218 134.541 118.008 134.135 117.625 134.017Z" fill="white"/>
<path d="M105.512 136.784L107.021 138.302C107.11 138.391 107.24 138.432 107.364 138.406L116.876 136.211L117.594 136.047C117.645 136.036 117.697 136.036 117.749 136.041L118.1 134.924C118.221 134.544 118.008 134.138 117.628 134.017L101.146 128.824C100.766 128.703 100.36 128.916 100.239 129.296L99.6799 131.068L100.046 131.428L105.512 136.784Z" fill="#3865A7"/>
<path d="M99.4059 131.931L96.7189 140.459L104.768 137.193L99.4059 131.931Z" fill="#3865A7"/>
<path d="M114.567 146.133L117.475 136.906L109.817 138.671L114.567 146.133Z" fill="#3865A7"/>
<path d="M113.918 146.622L108.979 138.864L107.539 139.195C107.332 139.238 107.122 139.227 106.929 139.166C106.75 139.109 106.583 139.011 106.445 138.872L105.382 137.804C105.356 137.821 105.33 137.838 105.302 137.85L96.8948 141.263C96.8026 141.3 96.7076 141.3 96.6212 141.274C96.5722 141.26 96.5262 141.234 96.4858 141.199L96.4513 141.312C96.3303 141.692 96.5434 142.098 96.9236 142.219L113.406 147.412C113.786 147.533 114.192 147.319 114.313 146.939L114.359 146.798C114.287 146.815 114.209 146.815 114.14 146.792C114.051 146.766 113.97 146.709 113.918 146.622Z" fill="#3865A7"/>
<path d="M107.001 88.3167L100.633 91.0614C99.2794 91.646 97.6954 91.0153 97.1136 89.6617L94.6195 83.8729C94.0349 82.5193 94.6656 80.9353 96.0192 80.3535L102.387 77.6089C103.74 77.0243 105.324 77.655 105.906 79.0086L108.4 84.7974C108.982 86.1481 108.354 87.7321 107.001 88.3167Z" fill="#AA0D0D"/>
<path d="M106.724 87.591L100.356 90.3357C99.0029 90.9203 97.4189 90.2896 96.8371 88.936L94.343 83.1472C93.7584 81.7936 94.3891 80.2096 95.7427 79.6278L102.11 76.8832C103.464 76.2986 105.048 76.9293 105.63 78.2829L108.124 84.0717C108.706 85.4224 108.075 87.0064 106.724 87.591Z" fill="#FE5F5F"/>
<path d="M101.235 85.9983C100.31 85.9983 99.4263 85.4568 99.0375 84.5554C98.5162 83.3458 99.0749 81.9375 100.287 81.4162C100.872 81.1628 101.523 81.1541 102.116 81.3903C102.71 81.6265 103.176 82.0786 103.427 82.6661C103.68 83.2508 103.689 83.9017 103.453 84.4949C103.216 85.0882 102.764 85.5548 102.18 85.8053C101.871 85.9349 101.549 85.9983 101.235 85.9983ZM101.232 81.5055C100.95 81.5055 100.668 81.5631 100.4 81.6783C99.3341 82.1362 98.8417 83.3746 99.3025 84.4402C99.7604 85.5058 101.002 85.9954 102.064 85.5375C102.58 85.3157 102.977 84.9068 103.185 84.3826C103.392 83.8613 103.383 83.2911 103.162 82.7756C102.94 82.2601 102.531 81.8626 102.01 81.6553C101.756 81.5545 101.494 81.5055 101.232 81.5055Z" fill="white"/>
<path d="M144.161 87.8475L134.271 86.9777C132.169 86.7934 130.602 84.9214 130.786 82.819L131.575 73.8276C131.76 71.7252 133.632 70.1585 135.734 70.3428L145.624 71.2126C147.727 71.3969 149.293 73.2689 149.109 75.3713L148.32 84.3627C148.135 86.4651 146.263 88.0318 144.161 87.8475Z" fill="#3A93FB"/>
<path d="M145.348 86.8395L135.458 85.9697C133.355 85.7854 131.789 83.9134 131.973 81.811L132.762 72.8196C132.946 70.7172 134.818 69.1505 136.921 69.3348L146.811 70.2046C148.913 70.3889 150.48 72.2609 150.295 74.3633L149.506 83.3546C149.319 85.4542 147.45 87.0238 145.348 86.8395Z" fill="#3865A7"/>
<path d="M140.918 82.7411C140.858 82.7411 140.795 82.7383 140.734 82.7325C139.801 82.6432 139.058 81.9031 138.966 80.9728L138.948 80.8L142.854 81.1687L142.805 81.3357C142.554 82.1738 141.779 82.7411 140.918 82.7411ZM139.28 81.1197C139.427 81.8311 140.026 82.3754 140.763 82.4474C141.5 82.5165 142.191 82.0931 142.468 81.4221L139.28 81.1197Z" fill="white"/>
<path d="M143.784 81.5344C143.723 81.5344 143.666 81.5316 143.605 81.5258L138.142 81.0103C137.12 80.9152 136.368 80.0052 136.463 78.9828C136.544 78.1245 137.2 77.442 138.044 77.3181L138.211 75.544C138.375 73.7959 139.928 72.5028 141.681 72.6698C143.43 72.834 144.72 74.392 144.556 76.1402L144.389 77.9143C145.195 78.1936 145.711 78.9856 145.63 79.8439C145.584 80.3392 145.348 80.7856 144.965 81.1024C144.628 81.3876 144.213 81.5344 143.784 81.5344ZM141.382 72.9463C139.904 72.9463 138.64 74.0752 138.499 75.5728L138.309 77.586L138.188 77.5946C137.428 77.6551 136.823 78.2512 136.751 79.0116C136.67 79.8756 137.307 80.6445 138.168 80.7252L143.631 81.2407C144.052 81.281 144.458 81.1543 144.78 80.8864C145.103 80.6186 145.304 80.2413 145.342 79.8237C145.414 79.0634 144.93 78.3636 144.196 78.162L144.08 78.1303L144.271 76.1172C144.42 74.5245 143.248 73.1104 141.656 72.9578C141.563 72.9492 141.474 72.9463 141.382 72.9463Z" fill="white"/>
<path d="M86.4433 116.832L51.1115 132.343C49.5015 133.052 47.6209 132.317 46.9124 130.707L40.778 116.728C40.0695 115.118 40.8039 113.237 42.4139 112.529L77.7428 97.0171C79.3528 96.3087 81.2334 97.0431 81.9419 98.653L88.0792 112.63C88.7876 114.245 88.0532 116.123 86.4433 116.832Z" fill="#AA0D0D"/>
<path d="M86.5012 114.49L50.5703 130.264C49.4615 130.751 48.1684 130.247 47.6817 129.138L41.5991 115.282C41.1124 114.173 41.6164 112.88 42.7252 112.394L78.6532 96.6198C79.762 96.1331 81.0551 96.6371 81.5418 97.7459L87.6244 111.602C88.114 112.71 87.61 114.003 86.5012 114.49Z" fill="#FE5F5F"/>
<path d="M57.055 110.218L46.4492 114.875L51.1057 125.48L61.7115 120.824L57.055 110.218Z" fill="white"/>
<path d="M61.6986 111.204C61.5892 111.204 61.4826 111.141 61.4337 111.031C61.3703 110.884 61.4366 110.715 61.5806 110.651L77.4033 103.705C77.5502 103.641 77.7201 103.708 77.7834 103.852C77.8468 103.998 77.7806 104.168 77.6366 104.232L61.8138 111.178C61.7764 111.196 61.739 111.204 61.6986 111.204Z" fill="white"/>
<path d="M65.2264 119.236C65.1169 119.236 65.0104 119.173 64.9614 119.064C64.8981 118.917 64.9643 118.747 65.1083 118.683L80.931 111.737C81.0779 111.674 81.2478 111.74 81.3112 111.884C81.3745 112.031 81.3083 112.201 81.1643 112.264L65.3416 119.211C65.3042 119.228 65.2638 119.236 65.2264 119.236Z" fill="white"/>
<path d="M63.4609 115.222C63.3515 115.222 63.2449 115.158 63.196 115.049C63.1326 114.902 63.1988 114.732 63.3428 114.669L71.6948 111.002C71.8417 110.939 72.0116 111.005 72.075 111.149C72.1384 111.296 72.0721 111.466 71.9281 111.53L63.5761 115.196C63.5387 115.213 63.5012 115.222 63.4609 115.222Z" fill="white"/>
<path d="M73.7425 110.706C73.6331 110.706 73.5265 110.643 73.4776 110.533C73.4142 110.386 73.4804 110.216 73.6244 110.153L79.1656 107.719C79.3124 107.656 79.4824 107.722 79.5457 107.866C79.6091 108.013 79.5428 108.183 79.3988 108.246L73.8577 110.68C73.8203 110.7 73.7828 110.706 73.7425 110.706Z" fill="white"/>
<path d="M147.139 122.01C147.263 125.008 143.954 131.54 142.304 134.221C141.975 134.754 140.832 135.356 139.948 134.233C138.001 131.762 133.638 125.576 133.514 122.58C133.356 118.819 136.279 115.64 140.043 115.484C143.804 115.323 146.981 118.246 147.139 122.01Z" fill="#AA0D0D"/>
<path d="M147.871 121.644C147.995 124.642 143.951 131.54 142.304 134.221C141.975 134.754 141.215 134.786 140.844 134.282C138.977 131.747 134.372 125.213 134.245 122.215C134.087 118.453 137.01 115.274 140.774 115.118C144.536 114.96 147.715 117.883 147.871 121.644Z" fill="#FE5F5F"/>
<path d="M145.095 121.644C145.187 123.876 143.453 125.76 141.224 125.855C138.992 125.947 137.108 124.213 137.013 121.984C136.921 119.752 138.655 117.868 140.884 117.773C143.116 117.678 145.003 119.412 145.095 121.644Z" fill="white"/>
</svg>
